<?xml version="1.0" encoding="UTF-8"?>
<svg xmlns="http://www.w3.org/2000/svg" xmlns:xlink="http://www.w3.org/1999/xlink" width="16" height="16" viewBox="0 0 16 16" version="1.1">
<g id="surface1">
<path style=" stroke:none;fill-rule:nonzero;fill:rgb(80%,80%,80%);fill-opacity:1;" d="M 8 0 C 3.589844 0 0 3.589844 0 8 C 0 12.410156 3.589844 16 8 16 C 12.410156 16 16 12.410156 16 8 C 16 3.589844 12.410156 0 8 0 Z M 8 14.828125 C 4.234375 14.828125 1.171875 11.765625 1.171875 8 C 1.171875 4.234375 4.234375 1.171875 8 1.171875 C 11.765625 1.171875 14.828125 4.234375 14.828125 8 C 14.828125 11.765625 11.765625 14.828125 8 14.828125 Z M 8 14.828125 "/>
<path style=" stroke:none;fill-rule:nonzero;fill:rgb(80%,80%,80%);fill-opacity:1;" d="M 13.636719 7.414062 L 12.84375 7.414062 C 12.574219 5.191406 10.808594 3.425781 8.585938 3.15625 L 8.585938 2.363281 C 8.585938 2.039062 8.324219 1.777344 8 1.777344 C 7.675781 1.777344 7.414062 2.039062 7.414062 2.363281 L 7.414062 3.15625 C 5.191406 3.425781 3.425781 5.191406 3.15625 7.414062 L 2.363281 7.414062 C 2.039062 7.414062 1.777344 7.675781 1.777344 8 C 1.777344 8.324219 2.039062 8.585938 2.363281 8.585938 L 3.15625 8.585938 C 3.425781 10.808594 5.191406 12.574219 7.414062 12.84375 L 7.414062 13.636719 C 7.414062 13.960938 7.675781 14.222656 8 14.222656 C 8.324219 14.222656 8.585938 13.960938 8.585938 13.636719 L 8.585938 12.84375 C 10.808594 12.574219 12.574219 10.808594 12.84375 8.585938 L 13.636719 8.585938 C 13.960938 8.585938 14.222656 8.324219 14.222656 8 C 14.222656 7.675781 13.960938 7.414062 13.636719 7.414062 Z M 10.945312 8.585938 L 11.660156 8.585938 C 11.410156 10.160156 10.160156 11.410156 8.585938 11.660156 L 8.585938 10.945312 C 8.585938 10.625 8.324219 10.363281 8 10.363281 C 7.675781 10.363281 7.414062 10.625 7.414062 10.945312 L 7.414062 11.660156 C 5.839844 11.410156 4.589844 10.160156 4.339844 8.585938 L 5.050781 8.585938 C 5.375 8.585938 5.636719 8.324219 5.636719 8 C 5.636719 7.675781 5.375 7.414062 5.050781 7.414062 L 4.339844 7.414062 C 4.589844 5.839844 5.839844 4.589844 7.414062 4.339844 L 7.414062 5.054688 C 7.414062 5.375 7.675781 5.636719 8 5.636719 C 8.324219 5.636719 8.585938 5.375 8.585938 5.054688 L 8.585938 4.339844 C 10.160156 4.589844 11.410156 5.839844 11.660156 7.414062 L 10.945312 7.414062 C 10.625 7.414062 10.363281 7.675781 10.363281 8 C 10.363281 8.324219 10.625 8.585938 10.945312 8.585938 Z M 10.945312 8.585938 "/>
</g>
</svg>
